<svg width="537" height="203" viewBox="0 0 537 203" fill="none" xmlns="http://www.w3.org/2000/svg">
<path d="M267.814 61.5539C267.131 61.5539 266.6 61.0214 266.6 60.3366V57.7497C266.6 55.6194 264.854 53.8694 262.729 53.8694C260.603 53.8694 258.858 55.6194 258.858 57.7497V90.8465C258.858 92.9769 260.603 94.7268 262.729 94.7268C264.854 94.7268 266.6 92.9769 266.6 90.8465V88.0314C266.6 87.3466 267.131 86.814 267.814 86.814H270.243C270.926 86.814 271.457 87.3466 271.457 88.0314V90.8465C271.457 95.6398 267.51 99.5962 262.729 99.5962C257.871 99.5962 254 95.6398 254 90.8465V57.7497C254 52.9564 257.871 49 262.729 49C267.51 49 271.457 52.9564 271.457 57.7497V60.3366C271.457 61.0214 270.926 61.5539 270.243 61.5539H267.814Z" fill="#001E61"/>
<path d="M289.653 90.8465V57.8258C289.653 55.6194 287.908 53.8694 285.783 53.8694C283.581 53.8694 281.836 55.6194 281.836 57.8258V90.8465C281.836 92.9769 283.581 94.7268 285.783 94.7268C287.908 94.7268 289.653 92.9769 289.653 90.8465ZM285.783 49C290.564 49 294.511 52.9564 294.511 57.8258V90.8465C294.511 95.7159 290.564 99.5962 285.783 99.5962C280.925 99.5962 276.978 95.7159 276.978 90.8465V57.8258C276.978 52.9564 280.925 49 285.783 49Z" fill="#001E61"/>
<path d="M317.164 49C317.847 49 318.379 49.6087 318.379 50.2174V90.8465C318.379 95.7159 314.432 99.5962 309.65 99.5962C304.792 99.5962 300.845 95.7159 300.845 90.8465V50.2174C300.845 49.6087 301.453 49 302.06 49H304.489C305.172 49 305.703 49.6087 305.703 50.2174V90.8465C305.703 92.9769 307.449 94.7268 309.65 94.7268C311.775 94.7268 313.521 92.9769 313.521 90.8465V50.2174C313.521 49.6087 314.052 49 314.735 49H317.164Z" fill="#001E61"/>
<path d="M333.517 49C338.299 49 342.246 52.9564 342.246 57.8258V98.3789C342.246 99.0636 341.715 99.5962 341.032 99.5962H338.603C337.92 99.5962 337.388 99.0636 337.388 98.3789V57.8258C337.388 55.6194 335.643 53.8694 333.517 53.8694C331.316 53.8694 329.57 55.6194 329.57 57.8258V98.3789C329.57 99.0636 329.039 99.5962 328.356 99.5962H325.927C325.244 99.5962 324.713 99.0636 324.713 98.3789V57.8258C324.713 52.9564 328.66 49 333.517 49Z" fill="#001E61"/>
<path d="M358.427 49C359.11 49 359.641 49.6087 359.641 50.2174V52.6521C359.641 53.3368 359.11 53.8694 358.427 53.8694H355.011V98.3789C355.011 99.0636 354.48 99.5962 353.797 99.5962H351.368C350.685 99.5962 350.153 99.0636 350.153 98.3789V53.8694H346.738C346.055 53.8694 345.523 53.3368 345.523 52.6521V50.2174C345.523 49.6087 346.055 49 346.738 49H358.427Z" fill="#001E61"/>
<path d="M380.743 49C381.427 49 381.958 49.6087 381.958 50.2174V67.9451C381.958 71.9775 379.301 75.3253 375.658 76.3904V98.3789C375.658 99.0636 375.051 99.5962 374.444 99.5962H372.015C371.332 99.5962 370.8 99.0636 370.8 98.3789V76.3904C367.081 75.3253 364.425 71.9775 364.425 67.9451V50.2174C364.425 49.6087 364.956 49 365.639 49H368.068C368.751 49 369.282 49.6087 369.282 50.2174V67.9451C369.282 70.0754 371.028 71.8254 373.229 71.8254C375.354 71.8254 377.1 70.0754 377.1 67.9451V50.2174C377.1 49.6087 377.631 49 378.315 49H380.743Z" fill="#001E61"/>
<path d="M412.205 61.5539C411.521 61.5539 410.99 61.0214 410.99 60.3366V57.7497C410.99 55.6194 409.244 53.8694 407.119 53.8694C404.994 53.8694 403.248 55.6194 403.248 57.7497V90.8465C403.248 92.9769 404.994 94.7268 407.119 94.7268C409.244 94.7268 410.99 92.9769 410.99 90.8465V88.0314C410.99 87.3466 411.521 86.814 412.205 86.814H414.633C415.316 86.814 415.848 87.3466 415.848 88.0314V90.8465C415.848 95.6398 411.901 99.5962 407.119 99.5962C402.261 99.5962 398.39 95.6398 398.39 90.8465V57.7497C398.39 52.9564 402.261 49 407.119 49C411.901 49 415.848 52.9564 415.848 57.7497V60.3366C415.848 61.0214 415.316 61.5539 414.633 61.5539H412.205Z" fill="#001E61"/>
<path d="M434.044 90.8465V57.8258C434.044 55.6194 432.298 53.8694 430.173 53.8694C427.972 53.8694 426.226 55.6194 426.226 57.8258V90.8465C426.226 92.9769 427.972 94.7268 430.173 94.7268C432.298 94.7268 434.044 92.9769 434.044 90.8465ZM430.173 49C434.955 49 438.902 52.9564 438.902 57.8258V90.8465C438.902 95.7159 434.955 99.5962 430.173 99.5962C425.315 99.5962 421.368 95.7159 421.368 90.8465V57.8258C421.368 52.9564 425.315 49 430.173 49Z" fill="#001E61"/>
<path d="M456.621 94.7268C457.304 94.7268 457.835 95.3355 457.835 95.9442V98.3789C457.835 99.0636 457.304 99.5962 456.621 99.5962H447.665C446.298 99.5962 445.236 98.531 445.236 97.1615V50.2174C445.236 49.6087 445.767 49 446.45 49H448.879C449.486 49 450.094 49.6087 450.094 50.2174V94.7268H456.621Z" fill="#001E61"/>
<path d="M474.781 94.7268C475.464 94.7268 475.995 95.3355 475.995 95.9442V98.3789C475.995 99.0636 475.464 99.5962 474.781 99.5962H465.825C464.458 99.5962 463.396 98.531 463.396 97.1615V50.2174C463.396 49.6087 463.927 49 464.61 49H467.039C467.646 49 468.254 49.6087 468.254 50.2174V94.7268H474.781Z" fill="#001E61"/>
<path d="M493.017 53.8694H486.414V71.9014H493.017C493.7 71.9014 494.231 72.434 494.231 73.1188V75.5535C494.231 76.1622 493.7 76.7709 493.017 76.7709H486.414V94.7268H493.017C493.7 94.7268 494.231 95.3355 494.231 95.9442V98.3789C494.231 99.0636 493.7 99.5962 493.017 99.5962H483.985C482.618 99.5962 481.556 98.531 481.556 97.1615V51.4347C481.556 50.1413 482.618 49 483.985 49H493.017C493.7 49 494.231 49.6087 494.231 50.2174V52.6521C494.231 53.3368 493.7 53.8694 493.017 53.8694Z" fill="#001E61"/>
<path d="M514.345 61.5539C513.662 61.5539 513.131 61.0214 513.131 60.3366V57.7497C513.131 55.6194 511.385 53.8694 509.26 53.8694C507.135 53.8694 505.389 55.6194 505.389 57.7497V90.8465C505.389 92.9769 507.135 94.7268 509.26 94.7268C511.385 94.7268 513.131 92.9769 513.131 90.8465V76.6187H510.474C509.791 76.6187 509.26 76.0861 509.26 75.4013V72.9666C509.26 72.2819 509.791 71.7493 510.474 71.7493H516.774C517.457 71.7493 517.988 72.2819 517.988 72.9666V90.8465C517.988 95.6398 514.042 99.5962 509.26 99.5962C504.478 99.5962 500.531 95.6398 500.531 90.8465V57.7497C500.531 52.9564 504.478 49 509.26 49C514.042 49 517.988 52.9564 517.988 57.7497V60.3366C517.988 61.0214 517.457 61.5539 516.774 61.5539H514.345Z" fill="#001E61"/>
<path d="M535.786 53.8694H529.182V71.9014H535.786C536.469 71.9014 537 72.434 537 73.1188V75.5535C537 76.1622 536.469 76.7709 535.786 76.7709H529.182V94.7268H535.786C536.469 94.7268 537 95.3355 537 95.9442V98.3789C537 99.0636 536.469 99.5962 535.786 99.5962H526.753C525.387 99.5962 524.324 98.531 524.324 97.1615V51.4347C524.324 50.1413 525.387 49 526.753 49H535.786C536.469 49 537 49.6087 537 50.2174V52.6521C537 53.3368 536.469 53.8694 535.786 53.8694Z" fill="#001E61"/>
<path d="M266.676 154.25V121.23C266.676 119.023 264.93 117.273 262.805 117.273C260.603 117.273 258.858 119.023 258.858 121.23V154.25C258.858 156.381 260.603 158.131 262.805 158.131C264.93 158.131 266.676 156.381 266.676 154.25ZM262.805 112.404C267.586 112.404 271.533 116.36 271.533 121.23V154.25C271.533 159.12 267.586 163 262.805 163C257.947 163 254 159.12 254 154.25V121.23C254 116.36 257.947 112.404 262.805 112.404Z" fill="#001E61"/>
<path d="M289.329 117.273H282.725V135.305H289.329C290.012 135.305 290.543 135.838 290.543 136.523V138.957C290.543 139.566 290.012 140.175 289.329 140.175H282.725V161.783C282.725 162.467 282.194 163 281.511 163H279.082C278.399 163 277.867 162.467 277.867 161.783V114.838C277.867 113.545 279.006 112.404 280.296 112.404H289.329C290.012 112.404 290.543 113.012 290.543 113.621V116.056C290.543 116.741 290.012 117.273 289.329 117.273Z" fill="#001E61"/>
<path d="M329.143 112.404C334.001 112.404 337.948 116.36 337.948 121.23V161.783C337.948 162.467 337.34 163 336.733 163H334.304C333.621 163 333.09 162.467 333.09 161.783V121.23C333.09 119.023 331.344 117.273 329.143 117.273C327.018 117.273 325.272 119.023 325.272 121.23V161.783C325.272 162.467 324.741 163 324.058 163H321.629C320.946 163 320.414 162.467 320.414 161.783V121.23C320.414 119.023 318.669 117.273 316.543 117.273C314.342 117.273 312.596 119.023 312.596 121.23V161.783C312.596 162.467 312.065 163 311.382 163H308.953C308.346 163 307.739 162.467 307.739 161.783V121.23C307.739 116.36 311.686 112.404 316.543 112.404C318.972 112.404 321.249 113.469 322.843 115.143C324.437 113.469 326.714 112.404 329.143 112.404Z" fill="#001E61"/>
<path d="M356.957 154.25V121.23C356.957 119.023 355.211 117.273 353.086 117.273C350.885 117.273 349.139 119.023 349.139 121.23V154.25C349.139 156.381 350.885 158.131 353.086 158.131C355.211 158.131 356.957 156.381 356.957 154.25ZM353.086 112.404C357.867 112.404 361.814 116.36 361.814 121.23V154.25C361.814 159.12 357.867 163 353.086 163C348.228 163 344.281 159.12 344.281 154.25V121.23C344.281 116.36 348.228 112.404 353.086 112.404Z" fill="#001E61"/>
<path d="M380.369 131.349V121.23C380.369 119.023 378.623 117.273 376.498 117.273H372.627V135.229H376.498C378.623 135.229 380.369 133.479 380.369 131.349ZM385.226 121.23V131.349C385.226 133.86 384.24 136.066 382.57 137.664C384.24 139.262 385.226 141.544 385.226 144.055V161.783C385.226 162.467 384.695 163 384.012 163H381.583C380.9 163 380.369 162.467 380.369 161.783V144.055C380.369 141.848 378.623 140.099 376.498 140.099H372.627V161.783C372.627 162.467 372.02 163 371.412 163H368.983C368.3 163 367.769 162.467 367.769 161.783V114.838C367.769 113.545 368.832 112.404 370.198 112.404H376.498C381.355 112.404 385.226 116.36 385.226 121.23Z" fill="#001E61"/>
<path d="M403.717 131.349V121.23C403.717 119.023 401.971 117.273 399.846 117.273H395.975V135.229H399.846C401.971 135.229 403.717 133.479 403.717 131.349ZM408.575 121.23V131.349C408.575 133.86 407.588 136.066 405.918 137.664C407.588 139.262 408.575 141.544 408.575 144.055V161.783C408.575 162.467 408.044 163 407.36 163H404.932C404.249 163 403.717 162.467 403.717 161.783V144.055C403.717 141.848 401.971 140.099 399.846 140.099H395.975V161.783C395.975 162.467 395.368 163 394.761 163H392.332C391.649 163 391.118 162.467 391.118 161.783V114.838C391.118 113.545 392.18 112.404 393.546 112.404H399.846C404.704 112.404 408.575 116.36 408.575 121.23Z" fill="#001E61"/>
<path d="M419.703 113.621V161.783C419.703 162.467 419.172 163 418.489 163H416.06C415.377 163 414.846 162.467 414.846 161.783V113.697C414.846 113.621 414.846 113.621 414.846 113.621C414.846 113.012 415.377 112.404 416.06 112.404H418.489C419.172 112.404 419.703 113.012 419.703 113.621Z" fill="#001E61"/>
<path d="M439.093 124.958C438.41 124.958 437.879 124.425 437.879 123.74V121.154C437.879 119.023 436.133 117.273 434.008 117.273C431.883 117.273 430.137 119.023 430.137 121.154V125.034C430.137 125.947 430.137 125.947 430.365 126.327L441.294 145.653C442.736 148.24 442.736 148.24 442.736 150.446V154.25C442.736 159.12 438.79 163 434.008 163C429.226 163 425.279 159.12 425.279 154.25V151.663C425.279 151.055 425.81 150.446 426.494 150.446H428.922C429.606 150.446 430.137 151.055 430.137 151.663V154.25C430.137 156.457 431.883 158.207 434.008 158.207C436.133 158.207 437.879 156.457 437.879 154.25V150.446C437.879 149.609 437.879 149.609 437.651 149.229L426.721 129.903C425.279 127.316 425.279 127.316 425.279 125.034V121.154C425.279 116.36 429.226 112.404 434.008 112.404C438.79 112.404 442.736 116.36 442.736 121.154V123.74C442.736 124.425 442.205 124.958 441.522 124.958H439.093Z" fill="#001E61"/>
<path d="M0 0H155.712C187.273 0 212.885 25.5176 212.885 56.941V146.059C212.885 177.482 187.263 203 155.712 203H57.1727C25.6214 203 0 177.482 0 146.059V0Z" fill="#DAE343"/>
<path d="M50.7736 48.0807C40.6723 47.9076 32.4011 56.4813 32.4011 66.5417V133.024C32.4011 143.084 40.6723 151.658 50.7736 151.485C60.5887 151.322 68.5328 143.318 68.5328 133.502V127.994C68.5328 127.036 67.7557 126.263 66.7947 126.263H60.0468C59.0858 126.263 58.3087 127.036 58.3087 127.994V133.227C58.3087 137.199 55.4562 140.732 51.4995 141.241C46.7147 141.852 42.6251 138.146 42.6251 133.502V66.3381C42.6251 62.3669 45.4776 58.8335 49.4343 58.3244C54.2191 57.7134 58.3087 61.4199 58.3087 66.0631V70.4417C58.3087 71.3988 59.0858 72.1727 60.0468 72.1727H66.7947C67.7557 72.1727 68.5328 71.3988 68.5328 70.4417V66.0631C68.5328 56.2471 60.5989 48.2436 50.7736 48.0807Z" fill="#001E61"/>
<path d="M93.8337 48.0807C83.7323 47.9076 75.4611 56.4813 75.4611 66.5417V133.024C75.4611 143.084 83.7323 151.658 93.8337 151.485C103.935 151.312 111.593 143.318 111.593 133.502V127.994C111.593 127.036 110.816 126.263 109.855 126.263H103.107C102.146 126.263 101.369 127.036 101.369 127.994V133.227C101.369 137.199 98.5163 140.732 94.5596 141.241C89.7748 141.852 85.6851 138.146 85.6851 133.502V66.3381C85.6851 62.3669 88.5376 58.8335 92.4943 58.3244C97.2792 57.7134 101.369 61.4199 101.369 66.0631V70.4417C101.369 71.3988 102.146 72.1727 103.107 72.1727H109.855C110.816 72.1727 111.593 71.3988 111.593 70.4417V66.0631C111.593 56.2471 103.659 48.2436 93.8337 48.0807Z" fill="#001E61"/>
<path d="M164.511 48.1129C158.99 47.7871 153.98 49.9458 150.453 53.5606C146.936 49.9458 141.916 47.7871 136.395 48.1129C126.784 48.6933 119.443 56.931 119.443 66.5128V149.419C119.443 150.377 120.22 151.15 121.181 151.15H127.929C128.89 151.15 129.667 150.377 129.667 149.419V66.3397C129.667 62.3685 132.52 58.8352 136.476 58.326C141.261 57.7151 145.351 61.4215 145.351 66.0648V149.409C145.351 150.366 146.128 151.14 147.089 151.14H153.837C154.798 151.14 155.575 150.366 155.575 149.409V66.3296C155.575 62.3583 158.427 58.825 162.384 58.3159C167.169 57.7049 171.259 61.4114 171.259 66.0546V149.399C171.259 150.356 172.036 151.13 172.997 151.13H179.745C180.706 151.13 181.483 150.356 181.483 149.399V66.4925C181.483 56.9005 174.132 48.6628 164.531 48.0925L164.511 48.1129Z" fill="#001E61"/>
</svg>
