<svg width="120" height="120" viewBox="0 0 120 120" fill="none" xmlns="http://www.w3.org/2000/svg">
<circle cx="60" cy="60" r="60" fill="#DAE343"/>
<path d="M42.6266 61.1406H32.0179V92.6765H42.6266V61.1406Z" fill="#001E61"/>
<path d="M60.046 68.9526C62.9779 68.9526 65.3503 71.3354 65.3503 74.257V92.6771H54.7417V74.257C54.7417 71.3251 57.1245 68.9526 60.046 68.9526Z" fill="#001E61"/>
<path d="M88.1379 61.1406H77.5293V92.6765H88.1379V61.1406Z" fill="#001E61"/>
<path d="M60.044 27.2222L25.5555 49.7863V57.463H94.5325V49.7863L60.044 27.2222ZM60.044 50.3871C57.1121 50.3871 54.7397 48.0147 54.7397 45.0828C54.7397 42.1509 57.1121 39.7785 60.044 39.7785C62.9759 39.7785 65.3483 42.1509 65.3483 45.0828C65.3483 48.0147 62.9759 50.3871 60.044 50.3871Z" fill="#001E61"/>
</svg>
