<svg width="429" height="321" viewBox="0 0 429 321" fill="none" xmlns="http://www.w3.org/2000/svg">
<path d="M0 110H163C182.33 110 198 125.67 198 145V286C198 305.33 182.33 321 163 321H35C15.67 321 0 305.33 0 286V110Z" fill="#DAE343"/>
<path d="M0 114H163C182.33 114 198 129.67 198 149V270C198 289.33 182.33 305 163 305H35C15.67 305 0 289.33 0 270V114Z" fill="#57B6B2"/>
<path d="M0 61H163C182.33 61 198 76.67 198 96V254C198 273.33 182.33 289 163 289H35C15.67 289 0 273.33 0 254V61Z" fill="#001E61"/>
<path d="M84 137.361H70C62.268 137.361 56 143.629 56 151.361V202.194C56 209.926 62.268 216.194 70 216.194H120.833C128.565 216.194 134.833 209.926 134.833 202.194V191" stroke="#DAE343" stroke-width="2"/>
<path d="M106.166 133H141.999V168.833" stroke="#DAE343" stroke-width="2"/>
<line x1="141.512" y1="133.707" x2="98.5118" y2="176.707" stroke="#DAE343" stroke-width="2"/>
<path d="M231 49H394C413.33 49 429 64.67 429 84V225C429 244.33 413.33 260 394 260H266C246.67 260 231 244.33 231 225V49Z" fill="#DAE343"/>
<path d="M231 53H394C413.33 53 429 68.67 429 88V209C429 228.33 413.33 244 394 244H266C246.67 244 231 228.33 231 209V53Z" fill="#57B6B2"/>
<path d="M231 0H394C413.33 0 429 15.67 429 35V193C429 212.33 413.33 228 394 228H266C246.67 228 231 212.33 231 193V0Z" fill="#001E61"/>
<path d="M329.293 134.707C329.683 135.098 330.317 135.098 330.707 134.707L337.071 128.343C337.462 127.953 337.462 127.319 337.071 126.929C336.681 126.538 336.047 126.538 335.657 126.929L330 132.586L324.343 126.929C323.953 126.538 323.319 126.538 322.929 126.929C322.538 127.319 322.538 127.953 322.929 128.343L329.293 134.707ZM329 90L329 134L331 134L331 90L329 90Z" fill="#DAE343"/>
<circle cx="330.2" cy="114.2" r="43.2" stroke="#DAE343" stroke-width="2"/>
</svg>
