<svg width="506" height="487" viewBox="0 0 506 487" fill="none" xmlns="http://www.w3.org/2000/svg">
<path d="M454.788 337.453C451.948 336.743 447.827 336.444 444.972 336.585C443.356 333.96 441.288 332.058 439.069 331.08C438.593 330.872 438.12 330.717 437.645 330.589C433.825 329.275 429.99 330.247 429.568 330.362C426.33 330.901 423.307 333.385 420.994 337.606C416.565 345.678 411.824 349.748 407.943 350.934C407.766 350.862 407.587 350.793 407.422 350.702C402.587 348.025 402.753 343.089 402.964 336.839C403.263 327.934 405.98 317.351 390.351 309.295C390.351 309.295 385.939 308.841 383.858 310.34C397.67 317.891 397.336 327.806 397.042 336.575C396.893 340.99 396.3 347.029 400.64 350.608C403.669 353.103 407.831 353.408 411.239 352.772C415.707 351.941 421.536 347.916 426.782 338.356C428.659 334.943 430.991 332.76 433.473 331.943C433.67 332.012 433.868 332.082 434.066 332.167C436.184 333.1 438.112 335.004 439.576 337.632C437.103 338.599 434.894 340.202 433.04 342.416C426.093 350.707 426.763 358.595 429.445 362.823C430.308 364.18 431.408 365.195 432.602 365.823C432.623 365.833 433.572 366.226 433.951 366.317C435.489 366.774 438.179 367.252 441.203 366.333C444.063 365.54 446.847 362.529 447.987 357.47C449.673 349.981 448.257 343.292 446.043 338.562C446.938 338.321 448.879 338.009 450.471 338.455C458.709 340.76 466.532 347.817 469.436 355.996C472.307 364.089 469.615 371.958 462.686 377.792C462.686 377.792 466.38 380.356 470.36 380.027C471.738 378.849 473.536 376.897 474.658 375.155C477.999 369.971 478.576 363.819 476.223 357.323C472.847 347.996 464.038 339.764 454.782 337.448L454.788 337.453ZM441.555 356.797C440.695 360.63 439.157 363.347 437.268 364.538C436.488 364.041 435.767 363.299 435.158 362.34C432.829 358.67 432.605 352.433 436.753 345.995C437.324 345.111 437.979 344.222 438.721 343.335C439.443 342.475 440.236 341.74 441.072 341.086C442.506 345.376 442.904 350.809 441.555 356.797Z" fill="#57B6B2"/>
<path d="M164.575 195.131C163.883 195.492 159.393 199.236 152.878 198.585C151.823 198.478 150.749 198.059 149.83 197.361C147.68 195.729 146.379 193.937 145.629 192.209C147.523 191.776 149.208 191.036 150.605 190.128C155.063 187.225 156.978 182.633 155.373 178.707C154.916 177.585 154.275 176.76 153.508 176.249C153.508 176.249 149.694 173.463 146.19 173.426C142.651 173.389 138.839 178.229 138.201 183.624C138.035 185.018 138.03 186.947 138.676 189.041C137.709 189.191 136.697 189.252 135.644 189.209C133.55 189.129 131.448 188.333 129.634 186.91C129.036 186.439 128.435 185.929 127.837 185.371C125.887 183.557 124.332 181.754 123.096 179.994C124.955 179.345 126.755 178.327 128.483 176.909C134.942 171.61 138.566 161.094 133.676 153.89C133.176 153.155 132.599 152.554 131.966 152.087V152.079C131.95 152.066 131.932 152.055 131.913 152.042C131.819 151.975 131.723 151.921 131.627 151.86C128.181 149.582 124.856 148.973 124.712 148.948V148.959C124.073 148.77 123.403 148.684 122.708 148.732C118.229 149.045 113.856 154.061 112.542 160.407C111.81 163.946 111.57 170.101 115.876 177C114.292 177.387 112.673 177.489 111.047 177.31C110.05 177.2 109.059 176.8 108.172 176.172C106.89 175.264 105.63 174.177 104.404 172.911C89.5392 157.595 98.5487 137.722 102.782 130.337C103.824 128.52 104.681 127.404 104.615 127.406C99.3713 127.644 96.4732 124.201 96.4732 124.201C96.297 124.474 78.9538 151.582 98.2361 171.449C99.3206 172.566 100.426 173.552 101.551 174.409C101.733 174.564 106.065 178.162 112.906 179.893C114.839 180.568 116.784 180.878 118.699 180.814C125.516 188.905 132.225 192.396 140.42 192.564C141.419 194.001 142.982 195.529 144.889 196.913C147.755 198.991 150.957 200.353 154.489 201.285C165.16 204.103 171.909 197.556 171.909 197.556C171.909 197.556 168.669 197.661 164.58 195.128L164.575 195.131ZM144.731 186.68C144.745 186.512 144.75 186.33 144.769 186.178C145.201 182.518 147.159 179.388 149.213 177.847C149.836 180.889 148.115 184.351 144.731 186.68ZM120.363 175.058C118.29 170.061 118.534 165.755 119.092 163.057C120.315 157.143 124.079 153.19 127.393 152.317C131.822 158.962 128.328 168.725 122.252 173.712C121.637 174.219 121.004 174.655 120.363 175.058Z" fill="#DAE343"/>
<path d="M175.895 45.3248C168.421 42.7606 159.457 47.5044 159.078 47.7074C159.078 47.7074 161.917 50.2636 160.76 55.5442C164.438 53.7253 171.359 49.7721 178.237 51.7594C180.069 52.2882 181.592 53.3567 182.831 54.8284C183.133 55.1863 183.325 55.627 183.387 56.0918C183.694 58.4423 183.336 60.9024 182.503 63.293C179.995 61.7892 176.901 61.3778 173.45 62.1391C167.093 63.5467 160.824 68.7686 160.036 73.3174C159.935 73.9051 159.938 74.4607 160.023 74.9842H160.018C160.034 75.091 160.416 77.6365 162.766 81.4535L162.774 81.4481C163.159 82.1159 163.731 82.7062 164.505 83.1923C167.857 85.2971 173.002 83.9589 177.922 79.6986C180.908 77.1157 183.63 73.5845 185.216 69.7409C185.612 70.0454 185.988 70.3873 186.344 70.7612C186.627 71.0604 186.798 71.4584 186.806 71.8697C186.899 75.7882 184.469 79.8161 182.091 83.7479C179.476 88.0723 176.805 92.5063 177.719 96.6598H177.708C177.746 96.8281 178.672 100.749 181.119 104.395L181.13 104.39C181.394 104.788 181.688 105.183 182.041 105.573C185.772 109.681 190.348 109.689 194.774 109.695C199.034 109.7 203.086 109.719 206.16 113.418C206.385 113.685 206.526 114.024 206.561 114.372C206.895 117.804 205.391 121.199 203.612 125.2C202.023 128.774 200.225 132.826 199.579 137.594C199.272 139.853 199.456 141.921 200.057 143.796C201.246 147.501 202.731 150.121 203.436 151.334C206.088 155.882 211.126 158.321 214.064 159.411C215.407 159.91 216.38 160.161 216.35 160.135C213.89 157.878 213.695 152.57 213.695 152.57C213.623 152.562 206.815 151.606 202.955 147.1C202.811 146.932 202.72 146.726 202.691 146.507C202.536 145.356 202.525 144.114 202.709 142.762C203.337 138.12 205.111 134.132 206.676 130.612C208.77 125.897 210.61 121.728 209.291 117.315H209.299C209.275 117.232 209.245 117.155 209.221 117.075C209.197 117.005 209.176 116.933 209.152 116.864C208.172 113.856 206.892 111.393 206.093 110.002C206.077 109.975 206.067 109.946 206.051 109.919C206.011 109.847 205.965 109.785 205.925 109.713C205.696 109.321 205.519 109.045 205.426 108.896C205.407 108.869 205.388 108.84 205.372 108.81C205.362 108.794 205.348 108.773 205.346 108.768C201.937 103.77 197.164 103.759 192.535 103.754C188.657 103.749 184.656 103.735 181.346 100.792C180.9 100.397 180.665 99.8196 180.716 99.2267C180.996 96.0748 183.01 92.7253 185.107 89.2583C188.125 84.2688 191.218 79.1323 189.45 74.0733H189.455C188.387 70.2591 186.346 67.1713 186.258 67.0431L186.245 67.0538C186.213 67.0031 186.183 66.9523 186.151 66.9016C186.878 63.9928 186.456 60.264 185.812 58.1779C184.447 53.7573 182.286 50.536 182.19 50.3918L182.179 50.3998C180.62 47.9371 178.52 46.2249 175.897 45.3248H175.895ZM180.331 67.7937C178.897 70.1255 177.086 72.257 175.096 73.9772C170.793 77.7006 166.388 79.0842 163.375 77.7273C164.128 75.3875 166.386 72.8847 169.262 70.9669C171.282 69.6207 173.597 68.563 175.895 68.0555C177.462 67.7082 178.95 67.6281 180.331 67.791V67.7937Z" fill="#001E61"/>
<path d="M460.485 222.307C462.98 222.921 467.641 223.357 473.378 222.318C476.303 221.789 478.998 220.095 480.724 217.713C483.897 213.335 482.949 207.977 478.186 203.377C473.875 199.213 467.438 197.255 460.611 197.942C464.307 182.618 480.849 175.978 481.728 175.636C481.728 175.636 470.09 175.767 469.433 173.144C465.662 175.187 455.357 182.442 452.063 197.862C451.66 197.92 451.254 197.99 450.848 198.067C444.723 199.24 439.373 202.448 436.539 206.644C433.091 211.746 431.926 216.27 430.901 220.261C429.589 225.363 428.454 229.77 423.026 233.913C421.571 235.024 420.128 235.852 418.723 236.448C417.633 236.91 416.447 236.891 415.595 236.424C415.237 236.226 414.898 236.009 414.586 235.772C410.942 233.023 409.837 227.406 416.012 221.564C416.012 221.564 411.802 223.343 407.865 222.721C405.787 222.392 405.293 221.185 405.293 221.185C401.711 225.55 401.228 229.57 402.446 232.609C403.146 234.351 404.262 235.921 405.961 236.749C410.937 239.177 415.459 239.193 419.896 238.876C423.544 238.614 427.273 237.519 430.97 234.698C436.707 230.32 437.877 225.766 439.232 220.496C440.241 216.572 441.384 212.122 444.745 207.154C446.315 204.83 448.722 202.832 451.62 201.355C451.388 204.542 451.609 207.977 452.469 211.657C454.069 218.501 458.159 221.733 460.488 222.304L460.485 222.307ZM470.024 203.757C474.527 208.108 475.454 213.124 472.505 217.179C471.527 218.519 470.213 219.604 468.725 220.352C467.969 220.731 467.088 220.726 466.498 220.37C463.821 218.746 461.807 215.707 460.806 211.58C459.657 206.831 459.654 202.611 460.408 198.882C464.126 199.632 467.465 201.288 470.024 203.762V203.757Z" fill="#DAE343"/>
<path d="M92.3091 259.309C89.3415 261.98 89.0103 266.35 88.6577 270.976C88.2571 276.244 87.8457 281.687 83.2515 284.195C83.1046 284.275 82.9149 284.265 82.7921 284.169C81.4726 283.132 80.1477 281.853 78.7615 280.507C75.9194 277.745 71.8407 274.945 69.1537 273.589C63.1732 270.562 57.4972 270.698 52.9911 272.616C35.0523 280.253 26.5396 309.984 26.187 311.25C26.187 311.25 36.7591 306.616 40.771 311.395C41.0141 311.202 44.8764 282.889 61.9178 275.466C64.0092 274.555 67.308 278.255 69.2418 280.133C71.7499 282.569 74.3061 285.045 77.1561 286.105V286.11C77.3191 286.185 81.2349 287.892 87.8217 288.074C89.2373 288.151 90.7305 287.844 92.3304 286.976C97.7393 284.038 98.1827 278.164 98.6128 272.485C98.9413 268.166 99.1283 263.97 101.741 261.844C103.506 260.407 106.201 262.365 107.654 263.292C110.619 265.177 113.651 267.082 116.693 267.913L116.685 267.934C117.032 268.038 124.909 270.367 129.869 270.071C132.663 269.993 136.096 267.955 138.615 264.779C138.615 264.779 130.433 266.777 126.314 263.008C125.131 265.156 123.753 265.714 122.337 266.299C120.772 265.485 119.18 264.526 117.564 263.548C114.628 261.772 111.77 259.923 108.995 258.887C106.495 257.952 103.765 256.798 98.1079 257.199C96.5614 257.308 94.1521 257.656 92.3037 259.32L92.3091 259.309Z" fill="#57B6B2"/>
<path d="M297.577 340.498C300.045 345.249 303.918 349.459 303.956 349.502C304.429 350.023 304.925 350.477 305.438 350.885C305.721 356.308 307.757 361.96 310.308 366.882C311.648 369.468 313.222 372.126 317.338 376.1L317.343 376.095C319.411 378.194 321.758 379.583 324.32 380.232C325.009 387.481 327.095 396.974 331.241 402.653C333.329 405.249 342.208 408.03 342.208 408.03C335.696 397.848 333.009 388.163 332.194 380.04C341.546 377.502 350.096 367.67 353.189 358.829C354.952 353.789 354.901 349.277 353.079 345.925C352.98 345.69 350.697 340.364 347.192 337.899C347.099 337.829 347.005 337.762 346.909 337.698C346.898 337.69 346.885 337.682 346.874 337.674C344.406 336.085 341.188 336.625 337.822 339.272C331.217 344.461 324.323 357.814 324.064 373.854C320.102 374.043 316.555 372.633 313.617 369.735C313.556 369.676 313.505 369.604 313.465 369.527C310.772 364.209 309.907 358.45 310.225 353.001C310.783 353.076 311.352 353.097 311.934 353.07C318.404 352.76 324.464 346.382 326.588 340.396C327.776 337.047 327.71 334.004 326.427 331.691C326.334 331.512 324.101 327.273 320.482 324.185V324.191C318.948 322.839 316.916 322.973 314.755 324.621C310.273 328.04 306.106 336.734 305.47 346.411C303.905 346.048 302.444 345.257 301.119 344.061C301.05 343.999 300.991 343.919 300.946 343.836C293.357 329.183 299.898 318.202 300.219 317.532C294.428 313.897 293.167 309.228 293.167 309.228C293.109 309.38 287.644 324.327 297.58 340.492H297.575L297.577 340.498ZM331.965 371.613C332.018 370.453 332.101 369.342 332.21 368.303C333.332 357.688 337.55 348.249 342.956 344.256C345.371 342.469 347.641 342.084 349.575 343.067C349.756 343.161 349.895 343.35 349.935 343.556C350.4 345.858 350.085 348.244 349.593 350.175C347.644 357.859 340.779 366.797 332.793 371.177C332.517 371.33 332.24 371.471 331.962 371.613H331.965ZM311.32 345.901C312.979 339.24 316.192 333.734 319.432 331.17C320.156 330.599 321.216 329.931 322.343 329.784C322.48 331.507 322.18 333.395 321.435 335.358C319.846 339.555 316.678 343.123 313.134 345.068C312.538 345.394 311.932 345.671 311.32 345.901Z" fill="#E6E9F0"/>
<path d="M234.674 415.977C241.124 415.026 246.696 414.206 248.083 411.302C248.881 409.63 248.192 407.619 245.908 404.972C232.788 389.779 240.465 376.106 240.414 375.988C236.343 374.199 232.654 380.347 227.847 377.348C227.748 377.286 224.575 391.547 237.225 404.216C239.329 406.323 240.131 407.996 239.607 409.179C238.611 411.433 232.687 412.424 226.957 413.383C220.899 414.395 214.636 415.445 210.923 418.044C201.197 424.858 208.62 444.001 208.941 444.811C208.941 444.811 211.12 441.381 214.446 442.615C218.992 444.303 220.464 442.671 220.464 442.671C220.397 442.567 213.799 432.035 216.008 424.687C216.569 422.825 217.667 421.311 219.278 420.184C222.788 417.724 229.102 416.794 234.671 415.974L234.674 415.977Z" fill="#DAE343"/>
<path d="M423.355 99.2481C427.5 94.6458 433.238 87.6557 433.817 75.1952C433.817 75.1952 431.859 74.8934 429.196 78.3284C426.865 81.3386 424.762 80.5774 424.762 80.5774C425.66 87.5729 424.736 93.4759 422.102 98.0541C422.003 98.2251 421.867 98.3746 421.707 98.4868C420.566 99.2935 419.423 99.9666 418.32 100.525C416.688 101.353 414.986 102.01 413.25 102.515C412.671 99.8624 411.388 97.3463 409.415 95.0572C403.349 88.0243 392.926 85.1796 387.362 87.0253C385.108 87.7732 383.719 89.2236 383.3 91.2429C383.292 91.2776 382.453 94.8221 382.354 98.6097H382.359C382.359 98.6551 382.349 98.6952 382.349 98.7379C382.314 101.532 384.344 104.16 388.059 106.137C393.503 109.037 401.823 110.119 409.228 108.172C409.89 111.642 409.313 115.403 407.489 119.249C407.435 119.358 407.369 119.465 407.291 119.559C399.534 128.79 389.643 128.71 388.436 128.801C386.505 135.441 382.926 136.851 382.926 136.851C383.081 136.851 397.355 136.672 406.017 123.239C406.679 122.211 410.373 116.519 411.396 114.497C412.743 111.831 413.456 109.179 413.573 106.604C414.687 106.083 415.756 105.482 416.765 104.785C418.742 103.42 421.215 101.62 423.352 99.2481H423.355ZM407.55 103.626C400.178 104.411 392.929 102.785 388.503 99.8464C386.505 98.5189 385.111 96.959 384.389 95.2869C384.905 94.7821 385.559 94.3734 386.35 94.0742C389.107 93.0299 393.399 93.4011 397.568 95.148C400.376 96.3233 403.124 98.1209 405.309 100.527C406.201 101.51 406.944 102.547 407.553 103.626H407.55Z" fill="#57B6B2"/>
<path d="M318.558 106.284C313.246 101.073 297.054 98.18 286.543 109.091C282.488 113.298 280.509 118.549 280.693 124.343C280.667 125.467 280.685 128.825 281.559 133.855C281.847 135.596 282.301 137.372 282.943 139.175C283.669 141.224 284.583 143.182 285.638 145.02C284.374 147.028 283.487 149.357 283.041 151.97C282.935 152.336 281.562 157.635 282.467 164.545C282.689 166.246 283.14 168.124 283.608 169.746C282.932 171.156 282.504 172.785 282.339 174.585H282.334C282.304 174.762 281.647 178.971 282.355 184.773C282.603 187.791 283.402 191.066 284.764 194.389C286.153 197.778 287.053 200.847 287.475 203.596C287.521 203.884 287.499 204.178 287.406 204.445C287.344 204.619 287.278 204.79 287.206 204.953C285.817 208.064 282.737 209.039 280.541 209.501C280.541 209.501 281.882 211.809 280.314 214.406C278.698 217.085 279.665 219.08 279.665 219.08C281.717 218.647 285.443 217.282 287.352 213.003C287.761 212.087 288.055 211.091 288.247 210.028C288.952 206.692 289.238 203.275 288.605 198.513C288.247 195.465 287.2 191.824 285.44 187.532C284.372 184.928 283.658 182.385 283.292 180.002C283.276 179.898 283.276 179.791 283.292 179.69C283.613 177.767 284.238 176.076 285.186 174.743C285.266 174.628 285.349 174.519 285.435 174.409C287.315 178.069 290.042 181.146 293.37 183.111C296.557 184.995 299.471 185.131 301.37 183.483C301.733 183.168 302.035 182.794 302.281 182.382H302.284C302.294 182.361 302.305 182.334 302.318 182.31C302.468 182.046 302.591 181.765 302.692 181.474C304.351 177.489 304.266 173.653 304.26 173.48H304.252C304.284 172.783 304.209 172.061 303.998 171.335C302.954 167.732 299.273 165.183 294.153 164.516C290.801 164.08 287.937 164.841 285.865 166.676C284.729 164.275 283.966 161.655 283.634 158.978C283.621 158.88 283.624 158.778 283.64 158.679C284.291 154.758 285.913 151.505 288.365 149.109C292.876 154.921 298.878 158.818 304.68 159.243C309.09 159.566 312.38 158.081 313.708 155.164C313.804 154.951 313.879 154.729 313.951 154.507H313.959C315.375 150.276 315.503 146.376 315.508 146.214H315.495C315.626 144.587 315.156 142.888 314.087 141.398C310.959 137.03 304.29 135.604 296.266 137.573C293.093 138.353 290.397 139.795 288.266 141.798C286.033 138.975 284.195 135.719 282.975 132.233C282.63 131.248 282.285 130.086 282.01 128.793C281.992 128.705 281.984 128.614 281.989 128.523C282.227 123.795 283.933 119.556 287.069 116.252C296.463 106.351 310.778 108.111 316.504 113.672C316.804 113.961 317.132 114.321 317.439 114.738C313.467 117.377 306.322 116.111 306.328 116.202C306.627 121.001 302.604 121.594 303.144 126.199C305.04 126.616 315.073 126.72 318.46 120.903C318.796 120.326 319.079 119.751 319.282 119.188C320.511 115.798 320.661 110.648 320.655 110.469H320.645C320.583 109.027 319.881 107.587 318.55 106.281L318.558 106.284ZM289.195 171.858C290.63 171.452 292.265 171.444 294.073 171.874C297.687 172.734 300.377 174.58 301.579 176.944C299.669 178.181 296.787 177.796 293.71 175.844C292.029 174.78 290.52 173.421 289.195 171.858ZM292.521 146.243C293.726 145.674 295.032 145.231 296.437 144.934C296.442 144.934 296.45 144.934 296.455 144.931C303.657 143.42 309.578 144.873 312.297 148.815C312.522 149.138 312.703 149.475 312.864 149.814C311.082 151.39 308.205 152.143 304.698 151.873C300.555 151.553 296.271 149.472 292.521 146.246V146.243Z" fill="#E6E9F0"/>
<path d="M131.421 322.252C130.334 324.832 128.729 331.622 137.298 338.96C141.27 342.365 145.372 344.633 149.467 345.728C142.709 359.781 126.632 368.023 126.405 368.136C126.405 368.136 128.705 370.566 133.785 369.845C138.804 369.135 140.805 370.574 140.805 370.574C140.992 370.433 153.754 360.627 159.126 346.094C159.366 346.046 159.604 346.003 159.841 345.947C160.103 345.886 160.36 345.811 160.619 345.739V345.747C165.635 344.756 171.212 342.518 172.088 342.101C177.289 339.812 181.859 335.391 185.206 329.333C187.69 324.838 189.367 320.404 190.994 316.117C193.852 308.576 196.307 302.099 202.095 298.058C203.321 297.203 204.723 296.704 206.147 296.439C206.745 296.33 207.325 296.199 207.888 296.052V296.057C207.955 296.047 212.114 295.558 217.448 293.007C223.544 290.491 225.686 286.134 226.439 283.364C227.718 278.645 226.297 273.246 223.258 270.818C223.036 270.639 222.804 270.479 222.566 270.335C222.566 270.335 221.348 271.98 216.631 271.486C212.039 271.005 209.753 273.417 209.753 273.417C214.222 274.537 217.162 279.625 216.444 285.004C216.115 287.47 215.071 289.639 213.423 291.42C211.956 293.004 209.993 293.971 207.961 294.423C207.605 294.503 207.255 294.585 206.914 294.676C206.582 294.748 201.793 295.75 196.638 298.087C196.494 298.151 196.347 298.215 196.208 298.282C195.821 298.466 195.441 298.651 195.083 298.843L195.089 298.856C187.618 302.951 184.824 310.307 181.723 318.497C180.109 322.757 178.44 327.162 175.988 331.601C173.702 335.741 170.83 339.085 167.58 341.478C166.076 342.584 164.267 343.145 162.496 343.049C161.733 343.006 160.966 342.921 160.197 342.787C161.746 337.127 162.066 330.858 160.127 324.242C158.175 317.583 154.147 313.579 149.272 313.363V313.352C149.245 313.352 149.141 313.352 148.994 313.352C148.874 313.352 148.754 313.339 148.631 313.342C148.316 313.35 148.001 313.379 147.688 313.419C145.442 313.595 141.131 314.223 136.836 316.448L136.841 316.461C134.485 317.658 132.492 319.715 131.421 322.25V322.252ZM142.723 316.552C142.923 316.371 143.198 316.296 143.441 316.355C147.263 317.289 150.17 320.874 151.564 326.505C152.72 331.179 152.616 335.535 151.673 339.531C149.892 338.487 148.121 337.226 146.377 335.73C138.038 328.588 139.368 322.335 140.327 319.976C140.866 318.649 141.7 317.484 142.723 316.55V316.552ZM210.332 294.767C210.375 294.762 210.418 294.754 210.461 294.748C210.397 294.767 210.335 294.783 210.274 294.799C210.292 294.788 210.314 294.778 210.335 294.767H210.332Z" fill="#001E61"/>
<path d="M232.478 72.0146C232.478 72.0146 244.06 74.9101 248.4 79.2532C248.4 86.4918 245.505 96.6231 245.505 96.6231C245.505 96.6231 242.61 90.8322 233.923 86.4891C235.371 80.6982 232.476 72.0146 232.476 72.0146H232.478Z" fill="#DAE343"/>
<path d="M370.767 390.414C370.767 390.414 380.901 390.414 386.689 386.071C386.689 386.071 392.48 394.758 393.928 403.441C389.585 406.337 376.558 404.889 376.558 404.889C376.558 404.889 378.006 397.65 370.767 390.414Z" fill="#001E61"/>
<path d="M355.475 266.811C355.475 266.811 364.161 261.021 372.845 261.021C372.845 261.021 368.502 269.707 369.95 276.943C361.263 275.495 356.92 284.181 356.92 284.181C356.92 284.181 352.577 274.047 355.472 266.811H355.475Z" fill="#E6E9F0"/>
<path d="M274.248 244.271C274.248 244.271 282.935 248.614 291.618 247.166C291.618 247.166 285.827 252.957 285.827 260.195C281.484 261.643 275.693 263.091 269.905 260.195C269.905 252.957 274.248 244.273 274.248 244.273V244.271Z" fill="#57B6B2"/>
<path d="M449.633 413.079C449.633 413.079 454.283 413.444 457.707 407.939C460.766 416.26 466.516 418.527 472.879 419.81C471.901 424.826 465.659 429.116 465.659 429.116C465.659 429.116 454.401 424.46 449.63 413.081L449.633 413.079Z" fill="#DAE343"/>
<path d="M474.204 275.001C474.204 275.001 483.982 277.921 492.73 265.818C495.687 270.252 502.586 268.524 502.586 268.524C502.586 268.524 499.29 284.366 483.245 286.864C474.93 282.609 474.206 275.001 474.206 275.001H474.204Z" fill="#001E61"/>
<path d="M153.594 241.346C153.594 241.346 164.62 243.012 171.642 255.516C176.325 249.602 181.039 249.014 181.039 249.014C181.039 249.014 177.743 239.743 164.681 233.236C157.71 236.356 153.594 241.346 153.594 241.346Z" fill="#E6E9F0"/>
<path d="M205.963 209.192C205.963 209.192 209.833 203.534 220.325 204.907C224.177 213.292 234.519 212.381 239.225 216.289C228.784 220.065 225.424 225.319 225.424 225.319C225.424 225.319 207.266 219.347 205.963 209.192Z" fill="#57B6B2"/>
<path d="M71.8248 330.188C71.8248 330.188 74.3142 333.54 81.1468 331.63C67.9117 342.295 64.5835 351.983 64.271 358.586C54.9864 359.524 50.5258 354.459 50.5258 354.459C50.5258 354.459 55.5447 340.826 71.8248 330.188Z" fill="#DAE343"/>
<path d="M21.3711 201.942C34.4726 204.335 43.1055 195.312 51.5033 197.831C54.3667 199.917 57.2514 203.099 58.1623 205.607C42.8624 204.955 39.5076 214.239 27.8003 211.56C27.1833 207.629 23.2061 203.876 21.3738 201.942H21.3711Z" fill="#001E61"/>
<path d="M117.922 69.0866C117.922 69.0866 108.218 58.9686 111.73 41.4091C107.401 41.4278 101.658 40.3647 98.7491 37.9287C98.4179 56.2014 103.196 65.2269 117.922 69.0866Z" fill="#E6E9F0"/>
<path d="M262.25 479.345C262.25 479.345 272.769 469.529 266.19 455.573C273.746 455.151 275.99 450.455 275.99 450.455C275.99 450.455 286.516 470.183 270.469 487C269.08 481.541 262.25 479.345 262.25 479.345Z" fill="#57B6B2"/>
<path d="M356.939 34.7587C356.939 34.7587 359.69 40.9956 350.245 46.7731C340.8 52.5506 341.351 63.1894 342.358 65.572C344.569 63.0959 350.611 68.7826 353.637 69.8831C351.712 57.2276 353.637 52.9165 358.13 49.6151C362.623 46.3137 367.393 40.627 367.118 31.6416C364.551 35.4933 356.939 34.7587 356.939 34.7587Z" fill="#DAE343"/>
<path d="M316.785 229.924C316.785 229.924 320.538 221.235 328.725 217.464C336.914 213.69 345.138 216.82 345.138 216.82C345.138 216.82 340.752 222.611 345.55 226.607C330.292 224.523 326.134 228.196 324.419 237.505C320.65 237.884 322.055 231.81 316.785 229.927V229.924Z" fill="#001E61"/>
<path d="M216.326 249.22L213.826 247.42C214.027 247.142 218.869 240.636 230.491 243.606L229.73 246.589C220.117 244.135 216.364 249.167 216.326 249.218V249.22Z" fill="#DAE343"/>
<path d="M212.659 31.8868C209.376 30.8291 206.743 28.3637 205.044 24.7631C203.764 22.0467 203.113 18.9776 202.947 15.9834C199.483 15.1928 196.846 12.8048 195.524 10.9111L198.046 9.14282C198.35 9.57286 200.102 11.8967 202.944 12.8075C203.091 10.1204 203.612 7.631 204.381 5.69449C206.5 0.35238 209.732 -0.0562913 211.022 0.00514291C213.452 0.133354 215.592 2.03514 216.345 4.73825C217.077 7.36123 216.439 11.1328 212.445 13.8465C210.178 15.3877 208.025 16.0876 206.048 16.2265C206.23 18.7132 206.785 21.2347 207.827 23.449C209.171 26.3017 211.115 28.1527 213.602 28.9567L212.656 31.8868H212.659ZM210.76 3.07686C209.47 3.07686 208.19 4.43642 207.242 6.82969C206.577 8.50711 206.128 10.7294 206.013 13.1387C207.429 13.0025 209.005 12.4603 210.717 11.2984C212.961 9.77319 213.957 7.631 213.38 5.56628C212.996 4.18267 211.935 3.13829 210.859 3.0822C210.827 3.0822 210.795 3.0822 210.763 3.0822L210.76 3.07686Z" fill="#DAE343"/>
<path d="M334.358 302.067C329.713 297.686 325.936 299.996 325.899 300.021L324.25 297.419C326.251 296.153 331.38 295.026 336.471 299.826L334.358 302.067Z" fill="#DAE343"/>
<path d="M14.9232 140.164C14.3917 140.164 13.8014 140.089 13.163 139.889C10.6068 139.09 8.41386 136.641 6.64294 132.605L9.46358 131.368C11.2024 135.335 12.9333 136.593 14.0792 136.951C15.1529 137.287 15.9142 136.879 15.9222 136.876L17.5382 139.496C17.3966 139.584 16.3977 140.164 14.9206 140.164H14.9232Z" fill="#DAE343"/>
<path d="M400.296 473.853C397.894 473.853 395.512 472.459 394.056 469.967C391.022 464.774 393.476 461.836 394.673 460.816C396.393 459.349 399.147 458.631 402.395 458.837C401.93 457.72 401.353 456.532 400.653 455.279C396.118 447.172 389.245 444.45 389.176 444.424L390.271 441.547C390.594 441.67 398.233 444.648 403.338 453.778C404.473 455.808 405.317 457.68 405.913 459.398C409.332 460.247 413.047 462.029 416.57 464.916L414.62 467.299C411.989 465.146 409.31 463.722 406.832 462.875C407.764 468.22 405.923 471.575 403.397 473.02C402.411 473.584 401.351 473.853 400.296 473.853ZM401.281 461.879C399.23 461.879 397.606 462.36 396.674 463.158C395.004 464.585 395.773 466.804 396.716 468.415C397.934 470.501 400.151 471.332 401.871 470.349C403.688 469.31 404.607 466.433 403.487 462.053C402.713 461.938 401.973 461.882 401.284 461.882L401.281 461.879Z" fill="#DAE343"/>
<path d="M78.1152 411.959L75.1075 411.294C75.1877 410.925 77.1856 402.271 85.4793 401.189L85.8773 404.242C79.7472 405.044 78.1766 411.679 78.1125 411.959H78.1152Z" fill="#DAE343"/>
<path d="M489.362 241.557L487.425 239.163C487.674 238.96 493.598 234.241 498.817 236.992L497.383 239.716C493.996 237.935 489.41 241.519 489.365 241.557H489.362Z" fill="#DAE343"/>
<path d="M121.928 453.16C121.867 452.973 120.433 448.51 123.766 444.247L126.192 446.146C123.865 449.119 124.837 452.156 124.848 452.188L121.926 453.163L121.928 453.16Z" fill="#DAE343"/>
<path d="M285.675 57.2323C285.632 56.8931 284.775 48.8291 295.326 43.1211L296.789 45.8295C288.172 50.4879 288.704 56.6126 288.731 56.8717L285.672 57.2323H285.675Z" fill="#57B6B2"/>
<path d="M62.2757 157.421C57.7029 153.11 53.9581 155.287 53.8005 155.383L52.1658 152.773C54.1664 151.507 59.2948 150.38 64.3859 155.182L62.2731 157.423L62.2757 157.421Z" fill="#57B6B2"/>
<path d="M155.226 406.925L154.708 403.888C158.909 403.169 160.56 401.823 161.201 400.821C161.837 399.831 161.612 398.957 161.602 398.922L164.545 398.02C164.615 398.236 165.181 400.204 163.869 402.36C162.478 404.646 159.569 406.182 155.223 406.925H155.226Z" fill="#57B6B2"/>
<path d="M4.14283 264.867L2.68176 262.156C4.37788 261.242 5.84697 259.768 6.99552 258.066C4.04133 255.638 2.92216 251.891 3.47507 248.474C3.99325 245.269 6.02059 243.266 8.40317 243.613C10.6442 243.936 12.1934 245.619 12.6555 248.226C13.0989 250.726 12.53 253.926 11.1544 256.934C11.6752 257.131 12.2468 257.292 12.8719 257.401C17.1669 258.176 20.0356 254.602 20.1558 254.45L22.5865 256.338C22.4209 256.552 18.4864 261.544 12.327 260.43C11.352 260.254 10.4572 259.989 9.64521 259.648C8.21887 261.798 6.35447 263.67 4.14016 264.864L4.14283 264.867ZM7.90101 246.656C7.34009 246.656 6.72842 247.662 6.5174 248.969C6.21824 250.82 6.66698 253.408 8.52604 255.264C9.51967 252.954 9.94437 250.566 9.62651 248.763C9.28729 246.853 8.29366 246.709 7.96779 246.661C7.94642 246.658 7.92505 246.656 7.90101 246.656Z" fill="#57B6B2"/>
<path d="M342.518 171.685L339.51 171.02C339.59 170.651 341.588 161.997 349.882 160.915L350.28 163.968C344.15 164.769 342.579 171.404 342.515 171.685H342.518Z" fill="#57B6B2"/>
<path d="M331.331 459.886L329.155 457.709C331.86 455.004 329.79 449.56 329.769 449.507L332.627 448.363C332.747 448.662 335.501 455.717 331.331 459.886Z" fill="#57B6B2"/>
<path d="M256.667 280.565C256.606 280.378 255.172 275.914 258.508 271.651L260.933 273.55C258.607 276.523 259.581 279.56 259.592 279.592L256.67 280.567L256.667 280.565Z" fill="#57B6B2"/>
<path d="M448.487 306.974C448.332 306.766 444.568 301.91 435.075 304.335L434.312 301.351C445.933 298.378 450.776 304.885 450.976 305.166L448.484 306.977L448.487 306.974Z" fill="#E6E9F0"/>
<path d="M233.613 342.475L232.866 339.489C236.528 338.573 238.344 336.075 239.223 334.139C239.781 332.91 240.117 331.598 240.272 330.298C238.352 330.188 236.263 329.657 234.073 328.503C229.615 326.152 229.618 323.011 229.823 321.769C230.216 319.413 232.225 317.498 234.709 317.113C237.583 316.665 240.283 318.326 241.931 321.547C242.74 323.128 243.227 325.004 243.392 326.961C246.539 326.203 248.411 324.173 248.443 324.141L250.732 326.203C249.421 327.659 246.806 329.502 243.382 330.113C243.216 331.97 242.765 333.794 242.027 335.415C240.366 339.075 237.454 341.519 233.613 342.478V342.475ZM235.611 320.124C235.47 320.124 235.326 320.134 235.181 320.156C234.014 320.337 233.039 321.229 232.863 322.276C232.657 323.505 233.621 324.782 235.51 325.778C237.251 326.697 238.865 327.116 240.32 327.218C240.176 325.57 239.765 324.074 239.191 322.952C238.258 321.133 236.974 320.126 235.611 320.126V320.124Z" fill="#E6E9F0"/>
<path d="M457.144 139.517L455.031 137.276C460.122 132.474 465.253 133.601 467.251 134.867L465.603 137.469L466.426 136.168L465.616 137.477C465.459 137.38 461.714 135.203 457.141 139.515L457.144 139.517Z" fill="#E6E9F0"/>
<path d="M321.604 23.2725C321.296 18.876 322.1 15.6867 323.994 13.793C325.778 12.0087 327.824 12.0968 328.051 12.1102L327.945 13.646L327.87 15.1846C327.827 15.1846 326.935 15.1685 326.118 16.0233C325.295 16.886 324.376 18.8065 324.673 23.0588L321.601 23.2725H321.604Z" fill="#E6E9F0"/>
<path d="M174.882 149.133C174.818 148.85 173.248 142.215 167.117 141.416L167.515 138.363C175.812 139.445 177.807 148.102 177.887 148.468L174.88 149.133H174.882Z" fill="#E6E9F0"/>
<path d="M172.636 458.978C168.466 454.808 171.22 447.752 171.34 447.455L174.198 448.598L172.769 448.027L174.201 448.596C174.18 448.649 172.083 454.071 174.813 456.801L172.636 458.978Z" fill="#E6E9F0"/>
<path d="M250.519 141.077L247.594 140.116C247.634 139.99 248.545 136.988 246.256 134.063L248.681 132.164C252.017 136.424 250.583 140.89 250.519 141.077Z" fill="#E6E9F0"/>
<path d="M294.404 401.756C284.647 394.78 286.506 386.884 286.589 386.553L289.575 387.306L288.082 386.929L289.577 387.293C289.519 387.546 288.229 393.556 296.194 399.254L294.401 401.759L294.404 401.756Z" fill="#001E61"/>
<path d="M94.6195 229.227L92.5067 226.986C97.6004 222.184 102.726 223.311 104.727 224.577L103.079 227.179L103.901 225.878L103.092 227.187C102.935 227.09 99.1897 224.913 94.6169 229.225L94.6195 229.227Z" fill="#001E61"/>
<path d="M253.572 21.0662C251.889 16.9929 251.643 13.7128 252.84 11.3169C253.97 9.05718 255.935 8.49359 256.157 8.4375L256.926 11.4184L256.542 9.92795L256.958 11.4104C256.924 11.4211 256.064 11.6962 255.561 12.7619C255.054 13.841 254.79 15.9512 256.416 19.8937L253.572 21.0689V21.0662Z" fill="#001E61"/>
<path d="M377.616 194.968L377.292 191.907C377.375 191.899 385.936 190.87 390.188 183.143C391.529 180.707 391.946 178.172 391.783 175.878C389.71 175.872 387.824 175.49 386.296 174.841C383.943 173.842 382.472 172.213 382.258 170.373C382.119 169.16 382.453 167.346 384.841 165.6C386.558 164.344 388.751 164.625 390.706 166.345C392.167 167.63 393.564 169.865 394.32 172.606C396.783 172.189 399.435 171.129 401.944 169.208L403.813 171.655C400.897 173.885 397.777 175.125 394.847 175.621C395.071 178.439 394.569 181.559 392.878 184.628C387.832 193.795 378.022 194.925 377.608 194.97L377.616 194.968ZM387.191 167.915C387.007 167.915 386.825 167.963 386.662 168.084C386.123 168.476 385.233 169.251 385.322 170.017C385.402 170.707 386.238 171.468 387.504 172.005C388.546 172.448 389.801 172.729 391.19 172.798C390.61 171.011 389.691 169.547 388.679 168.655C388.324 168.343 387.739 167.915 387.191 167.915Z" fill="#001E61"/>
<path d="M251.435 195.861C251.371 195.577 249.8 188.942 243.67 188.144L244.068 185.091C252.362 186.173 254.36 194.827 254.44 195.195L251.432 195.861H251.435Z" fill="#001E61"/>
<path d="M39.9457 108.37C35.7762 104.2 38.53 97.1458 38.6502 96.8467L41.5082 97.9899L40.0792 97.4183L41.5109 97.9872C41.4895 98.0406 39.3928 103.463 42.1226 106.193L39.9457 108.37Z" fill="#001E61"/>
<path d="M128.521 116.957L125.599 115.982L127.06 116.468L125.596 115.993C125.636 115.867 126.547 112.865 124.258 109.94L126.683 108.041C130.019 112.304 128.585 116.767 128.521 116.954V116.957Z" fill="#001E61"/>
<path d="M256.414 233.237C256.414 235.123 254.886 236.65 253 236.65C251.114 236.65 249.586 235.123 249.586 233.237C249.586 231.351 251.114 229.823 253 229.823C254.886 229.823 256.414 231.351 256.414 233.237Z" fill="#E6E9F0"/>
<path d="M441.355 263.51C441.355 265.396 439.827 266.924 437.941 266.924C436.056 266.924 434.528 265.396 434.528 263.51C434.528 261.625 436.056 260.097 437.941 260.097C439.827 260.097 441.355 261.625 441.355 263.51Z" fill="#E6E9F0"/>
<path d="M118.793 407.939C118.793 409.825 117.265 411.353 115.379 411.353C113.493 411.353 111.965 409.825 111.965 407.939C111.965 406.053 113.493 404.525 115.379 404.525C117.265 404.525 118.793 406.053 118.793 407.939Z" fill="#E6E9F0"/>
<path d="M498.099 327.281C499.984 327.281 501.513 325.753 501.513 323.868C501.513 321.982 499.984 320.454 498.099 320.454C496.214 320.454 494.685 321.982 494.685 323.868C494.685 325.753 496.214 327.281 498.099 327.281Z" fill="#E6E9F0"/>
<path d="M170.731 8.04544C170.731 9.93121 169.204 11.4591 167.318 11.4591C165.432 11.4591 163.904 9.93121 163.904 8.04544C163.904 6.15968 165.432 4.63184 167.318 4.63184C169.204 4.63184 170.731 6.15968 170.731 8.04544Z" fill="#E6E9F0"/>
<path d="M354.479 119.885C356.364 119.885 357.892 118.357 357.892 116.471C357.892 114.586 356.364 113.058 354.479 113.058C352.594 113.058 351.065 114.586 351.065 116.471C351.065 118.357 352.594 119.885 354.479 119.885Z" fill="#E6E9F0"/>
<path d="M3.41361 182.399C5.2989 182.399 6.82723 180.87 6.82723 178.985C6.82723 177.1 5.2989 175.571 3.41361 175.571C1.52833 175.571 0 177.1 0 178.985C0 180.87 1.52833 182.399 3.41361 182.399Z" fill="#E6E9F0"/>
<path d="M89.0958 198.876C89.0958 200.762 87.5679 202.29 85.6822 202.29C83.7964 202.29 82.2686 200.762 82.2686 198.876C82.2686 196.991 83.7964 195.463 85.6822 195.463C87.5679 195.463 89.0958 196.991 89.0958 198.876Z" fill="#E6E9F0"/>
<path d="M195.212 369.375C197.097 369.375 198.625 367.847 198.625 365.961C198.625 364.076 197.097 362.548 195.212 362.548C193.326 362.548 191.798 364.076 191.798 365.961C191.798 367.847 193.326 369.375 195.212 369.375Z" fill="#E6E9F0"/>
<path d="M433.815 403.753C433.815 405.639 432.287 407.167 430.401 407.167C428.515 407.167 426.987 405.639 426.987 403.753C426.987 401.868 428.515 400.34 430.401 400.34C432.287 400.34 433.815 401.868 433.815 403.753Z" fill="#E6E9F0"/>
<path d="M330.242 257.725C332.127 257.725 333.655 256.196 333.655 254.311C333.655 252.426 332.127 250.897 330.242 250.897C328.356 250.897 326.828 252.426 326.828 254.311C326.828 256.196 328.356 257.725 330.242 257.725Z" fill="#DAE343"/>
<path d="M303.435 8.04544C303.435 9.93121 301.907 11.4591 300.021 11.4591C298.136 11.4591 296.608 9.93121 296.608 8.04544C296.608 6.15968 298.136 4.63184 300.021 4.63184C301.907 4.63184 303.435 6.15968 303.435 8.04544Z" fill="#DAE343"/>
<path d="M62.4226 247.685C64.3079 247.685 65.8363 246.156 65.8363 244.271C65.8363 242.386 64.3079 240.857 62.4226 240.857C60.5374 240.857 59.009 242.386 59.009 244.271C59.009 246.156 60.5374 247.685 62.4226 247.685Z" fill="#DAE343"/>
<path d="M69.2498 54.898C69.2498 56.7837 67.722 58.3116 65.8362 58.3116C63.9505 58.3116 62.4226 56.7837 62.4226 54.898C62.4226 53.0122 63.9505 51.4844 65.8362 51.4844C67.722 51.4844 69.2498 53.0122 69.2498 54.898Z" fill="#DAE343"/>
<path d="M230.112 485.405C231.997 485.405 233.525 483.877 233.525 481.992C233.525 480.106 231.997 478.578 230.112 478.578C228.226 478.578 226.698 480.106 226.698 481.992C226.698 483.877 228.226 485.405 230.112 485.405Z" fill="#DAE343"/>
<path d="M156.313 116.19C158.045 115.446 158.847 113.439 158.103 111.707C157.36 109.974 155.352 109.173 153.62 109.916C151.888 110.66 151.086 112.667 151.83 114.4C152.573 116.132 154.58 116.934 156.313 116.19Z" fill="#DAE343"/>
<path d="M414.377 284.249C414.377 286.134 412.85 287.662 410.964 287.662C409.078 287.662 407.55 286.134 407.55 284.249C407.55 282.363 409.078 280.835 410.964 280.835C412.85 280.835 414.377 282.363 414.377 284.249Z" fill="#DAE343"/>
<path d="M270.816 362.117C272.701 362.117 274.23 360.589 274.23 358.704C274.23 356.818 272.701 355.29 270.816 355.29C268.931 355.29 267.402 356.818 267.402 358.704C267.402 360.589 268.931 362.117 270.816 362.117Z" fill="#DAE343"/>
<path d="M292.556 280.835C292.556 282.72 291.028 284.248 289.142 284.248C287.256 284.248 285.729 282.72 285.729 280.835C285.729 278.949 287.256 277.421 289.142 277.421C291.028 277.421 292.556 278.949 292.556 280.835Z" fill="#001E61"/>
<path d="M324.077 75.19C324.077 77.0757 322.549 78.6036 320.663 78.6036C318.777 78.6036 317.25 77.0757 317.25 75.19C317.25 73.3042 318.777 71.7764 320.663 71.7764C322.549 71.7764 324.077 73.3042 324.077 75.19Z" fill="#001E61"/>
<path d="M502.586 198.94C504.472 198.94 506 197.412 506 195.527C506 193.642 504.472 192.113 502.586 192.113C500.701 192.113 499.173 193.642 499.173 195.527C499.173 197.412 500.701 198.94 502.586 198.94Z" fill="#001E61"/>
<path d="M380.447 247.188C382.332 247.188 383.861 245.659 383.861 243.774C383.861 241.889 382.332 240.36 380.447 240.36C378.562 240.36 377.033 241.889 377.033 243.774C377.033 245.659 378.562 247.188 380.447 247.188Z" fill="#57B6B2"/>
<path d="M47.8627 393.852C47.8627 395.738 46.3349 397.266 44.4491 397.266C42.5634 397.266 41.0355 395.738 41.0355 393.852C41.0355 391.966 42.5634 390.438 44.4491 390.438C46.3349 390.438 47.8627 391.966 47.8627 393.852Z" fill="#57B6B2"/>
<path d="M259.72 41.3428C261.606 41.3428 263.134 39.8145 263.134 37.9292C263.134 36.0439 261.606 34.5156 259.72 34.5156C257.835 34.5156 256.307 36.0439 256.307 37.9292C256.307 39.8145 257.835 41.3428 259.72 41.3428Z" fill="#57B6B2"/>
<path d="M89.0958 97.7691C89.0958 99.6548 87.5679 101.183 85.6822 101.183C83.7964 101.183 82.2686 99.6548 82.2686 97.7691C82.2686 95.8833 83.7964 94.3555 85.6822 94.3555C87.5679 94.3555 89.0958 95.8833 89.0958 97.7691Z" fill="#57B6B2"/>
<path d="M464.671 98.6607C464.671 100.546 463.143 102.074 461.257 102.074C459.371 102.074 457.844 100.546 457.844 98.6607C457.844 96.7749 459.371 95.2471 461.257 95.2471C463.143 95.2471 464.671 96.7749 464.671 98.6607Z" fill="#57B6B2"/>
<path d="M202.883 336.486C202.883 338.372 201.355 339.899 199.469 339.899C197.584 339.899 196.056 338.372 196.056 336.486C196.056 334.6 197.584 333.072 199.469 333.072C201.355 333.072 202.883 334.6 202.883 336.486Z" fill="#57B6B2"/>
<path d="M360.248 445.195C362.134 445.195 363.662 443.667 363.662 441.782C363.662 439.896 362.134 438.368 360.248 438.368C358.363 438.368 356.835 439.896 356.835 441.782C356.835 443.667 358.363 445.195 360.248 445.195Z" fill="#57B6B2"/>
<path d="M201.038 232.237C202.371 230.904 202.371 228.743 201.038 227.409C199.705 226.076 197.544 226.076 196.211 227.409C194.878 228.743 194.878 230.904 196.211 232.237C197.544 233.57 199.705 233.57 201.038 232.237Z" fill="#57B6B2"/>
<path d="M128.884 297.852C128.884 299.738 127.356 301.266 125.47 301.266C123.584 301.266 122.057 299.738 122.057 297.852C122.057 295.966 123.584 294.438 125.47 294.438C127.356 294.438 128.884 295.966 128.884 297.852Z" fill="#57B6B2"/>
<path d="M226.909 147.757C228.794 147.757 230.323 146.229 230.323 144.343C230.323 142.458 228.794 140.93 226.909 140.93C225.024 140.93 223.495 142.458 223.495 144.343C223.495 146.229 225.024 147.757 226.909 147.757Z" fill="#57B6B2"/>
<path d="M267.4 307.505C269.285 307.505 270.813 305.977 270.813 304.091C270.813 302.206 269.285 300.678 267.4 300.678C265.514 300.678 263.986 302.206 263.986 304.091C263.986 305.977 265.514 307.505 267.4 307.505Z" fill="#57B6B2"/>
<path d="M367.129 323.868C369.014 323.868 370.543 322.34 370.543 320.455C370.543 318.569 369.014 317.041 367.129 317.041C365.244 317.041 363.715 318.569 363.715 320.455C363.715 322.34 365.244 323.868 367.129 323.868Z" fill="#001E61"/>
<path d="M261.262 163.688C261.262 165.574 259.734 167.102 257.848 167.102C255.962 167.102 254.434 165.574 254.434 163.688C254.434 161.802 255.962 160.274 257.848 160.274C259.734 160.274 261.262 161.802 261.262 163.688Z" fill="#001E61"/>
<path d="M107.318 342.539C107.318 344.424 105.79 345.952 103.904 345.952C102.018 345.952 100.491 344.424 100.491 342.539C100.491 340.653 102.018 339.125 103.904 339.125C105.79 339.125 107.318 340.653 107.318 342.539Z" fill="#001E61"/>
<path d="M425.906 183.266C425.906 185.152 424.378 186.68 422.492 186.68C420.606 186.68 419.078 185.152 419.078 183.266C419.078 181.38 420.606 179.853 422.492 179.853C424.378 179.853 425.906 181.38 425.906 183.266Z" fill="#001E61"/>
<path d="M210.473 79.3063C212.359 79.3007 213.882 77.7679 213.877 75.8826C213.871 73.9973 212.338 72.4735 210.453 72.4791C208.568 72.4847 207.044 74.0176 207.05 75.9029C207.055 77.7881 208.588 79.3119 210.473 79.3063Z" fill="#001E61"/>
<path d="M148.145 220.634C148.145 222.52 146.617 224.048 144.731 224.048C142.846 224.048 141.318 222.52 141.318 220.634C141.318 218.749 142.846 217.221 144.731 217.221C146.617 217.221 148.145 218.749 148.145 220.634Z" fill="#001E61"/>
<path d="M280.763 93.671C282.648 93.671 284.177 92.1426 284.177 90.2574C284.177 88.3721 282.648 86.8438 280.763 86.8438C278.878 86.8438 277.349 88.3721 277.349 90.2574C277.349 92.1426 278.878 93.671 280.763 93.671Z" fill="#DAE343"/>
<path d="M395.968 50.3604C397.854 50.3604 399.382 48.8321 399.382 46.9468C399.382 45.0615 397.854 43.5332 395.968 43.5332C394.083 43.5332 392.555 45.0615 392.555 46.9468C392.555 48.8321 394.083 50.3604 395.968 50.3604Z" fill="#DAE343"/>
<path d="M167.318 289.443C169.203 289.443 170.731 287.915 170.731 286.03C170.731 284.145 169.203 282.616 167.318 282.616C165.432 282.616 163.904 284.145 163.904 286.03C163.904 287.915 165.432 289.443 167.318 289.443Z" fill="#DAE343"/>
<path d="M202.039 185.194C203.924 185.194 205.452 183.666 205.452 181.781C205.452 179.896 203.924 178.367 202.039 178.367C200.154 178.367 198.625 179.896 198.625 181.781C198.625 183.666 200.154 185.194 202.039 185.194Z" fill="#DAE343"/>
<path d="M171 186H291.603C316.048 186 335.885 205.764 335.885 230.102V299.126C335.885 323.465 316.04 343.229 291.603 343.229H215.282C190.844 343.229 171 323.465 171 299.126V186Z" fill="#DAE343"/>
<path d="M210.325 223.24C202.502 223.106 196.095 229.747 196.095 237.539V289.031C196.095 296.823 202.502 303.463 210.325 303.329C217.928 303.203 224.08 297.004 224.08 289.401V285.135C224.08 284.393 223.479 283.794 222.734 283.794H217.508C216.763 283.794 216.162 284.393 216.162 285.135V289.188C216.162 292.264 213.952 295.001 210.888 295.395C207.182 295.868 204.014 292.998 204.014 289.401V237.381C204.014 234.305 206.224 231.568 209.288 231.174C212.994 230.701 216.162 233.572 216.162 237.168V240.559C216.162 241.301 216.763 241.9 217.508 241.9H222.734C223.479 241.9 224.08 241.301 224.08 240.559V237.168C224.08 229.565 217.935 223.366 210.325 223.24Z" fill="#001E61"/>
<path d="M243.677 223.24C235.853 223.106 229.447 229.747 229.447 237.539V289.031C229.447 296.823 235.853 303.463 243.677 303.329C251.5 303.195 257.432 297.004 257.432 289.401V285.135C257.432 284.393 256.83 283.794 256.085 283.794H250.859C250.115 283.794 249.513 284.393 249.513 285.135V289.188C249.513 292.264 247.303 295.001 244.239 295.395C240.533 295.868 237.365 292.998 237.365 289.401V237.381C237.365 234.305 239.575 231.568 242.639 231.174C246.345 230.701 249.513 233.572 249.513 237.168V240.559C249.513 241.301 250.115 241.9 250.859 241.9H256.085C256.83 241.9 257.432 241.301 257.432 240.559V237.168C257.432 229.565 251.287 223.366 243.677 223.24Z" fill="#001E61"/>
<path d="M298.418 223.265C294.142 223.012 290.261 224.684 287.529 227.484C284.805 224.684 280.917 223.012 276.641 223.265C269.198 223.714 263.512 230.095 263.512 237.516V301.729C263.512 302.471 264.114 303.07 264.858 303.07H270.084C270.829 303.07 271.431 302.471 271.431 301.729V237.382C271.431 234.306 273.64 231.569 276.705 231.175C280.41 230.702 283.578 233.573 283.578 237.169V301.721C283.578 302.463 284.18 303.062 284.924 303.062H290.151C290.895 303.062 291.497 302.463 291.497 301.721V237.374C291.497 234.298 293.706 231.562 296.771 231.167C300.477 230.694 303.644 233.565 303.644 237.161V301.714C303.644 302.455 304.246 303.054 304.99 303.054H310.217C310.961 303.054 311.563 302.455 311.563 301.714V237.5C311.563 230.071 305.869 223.691 298.434 223.249L298.418 223.265Z" fill="#001E61"/>
</svg>
