<svg width="601" height="443" viewBox="0 0 601 443" fill="none" xmlns="http://www.w3.org/2000/svg">
<path opacity="0.25" d="M652 54.819C652 -35.392 586.412 -101 503.714 -101C421.016 -101 361.132 -43.593 361.132 32.9498C361.132 104.025 406.758 150.497 495.159 172.367C495.159 248.91 423.868 344.588 341.17 399.261L378.242 443C535.082 344.588 652 196.97 652 54.819ZM310.83 54.819C310.83 -35.392 245.242 -101 162.544 -101C79.8462 -101 19.9615 -43.593 19.9615 32.9498C19.9615 104.025 65.5879 150.497 153.989 172.367C153.989 248.91 82.6978 344.588 0 399.261L37.0714 443C193.912 344.588 310.83 196.97 310.83 54.819Z" fill="#DCDCDC"/>
</svg>
