<svg width="469" height="134" viewBox="0 0 469 134" fill="none" xmlns="http://www.w3.org/2000/svg">
<path d="M36.4221 28.2144H0V0H110.695V28.2144H72.7649V129.163H36.5015L36.4221 28.2144Z" fill="#0B1F41"/>
<path d="M80.0234 38.3269H112.081V95.3151C112.081 95.3151 112.637 103.947 121.921 103.947C131.126 103.947 132.078 95.3151 132.078 95.3151V38.3269H165.246V130.963H132.078V122.331C132.078 122.331 121.841 134 104.86 134C89.7043 134 83.7529 122.331 83.7529 122.331C83.7529 122.331 80.0234 115.856 80.0234 106.745C80.0234 97.5531 80.0234 38.3269 80.0234 38.3269Z" fill="#0B1F41"/>
<path d="M200.123 38.3269H167.668V130.963H200.837V79.4895C200.837 79.4895 202.186 67.7402 219.564 65.5821H225.119V39.1262H219.485C219.485 39.1262 204.884 40.5649 200.123 52.0744V38.3269Z" fill="#0B1F41"/>
<path d="M444.004 38.3269H411.55V130.963H444.719V79.4895C444.719 79.4895 446.067 67.7402 463.445 65.5821H469V39.1262H463.366C463.366 39.1262 448.765 40.5649 444.004 52.0744V38.3269Z" fill="#0B1F41"/>
<path d="M261.252 36.6557H228.639V129.292H261.014V75.1008C261.014 75.1008 262.998 65.5095 271.012 65.5095C279.027 65.5095 280.931 75.1807 280.931 75.1807V129.212H313.148V61.4332C313.148 61.4332 312.751 34.4977 289.422 34.4977C289.422 34.4977 273.472 33.9382 261.252 47.1262V36.6557Z" fill="#0B1F41"/>
<path d="M360.641 34.4944C360.641 34.4944 316.284 34.0149 316.284 83.7297C316.284 83.7297 315.729 132.485 360.641 132.485C360.641 132.485 399.92 135.683 406.586 97.0776H376.432C376.432 97.0776 372.385 109.786 362.228 109.786C352.071 109.786 348.342 94.9995 347.786 91.6425H407.538C407.458 91.6425 412.219 34.4944 360.641 34.4944ZM348.024 70.222C348.024 70.222 351.437 56.0748 361.514 56.0748C373.496 56.0748 376.115 70.222 376.115 70.222H348.024Z" fill="#0B1F41"/>
</svg>
